<svg width="159" height="41" viewBox="0 0 159 41" fill="none" xmlns="http://www.w3.org/2000/svg">
<path d="M145.329 23.2107C145.228 23.6417 145.095 24.0562 144.928 24.4541C144.477 25.4986 143.86 26.3939 143.042 27.1565C142.24 27.9191 141.289 28.516 140.17 28.9305C139.069 29.3615 137.85 29.5605 136.548 29.5605C135.246 29.5605 134.027 29.3449 132.926 28.9305C131.824 28.4994 130.872 27.9191 130.055 27.1565C129.253 26.3939 128.619 25.4986 128.168 24.4541C127.717 23.4096 127.5 22.2657 127.5 21.0222C127.5 19.7788 127.717 18.6349 128.168 17.5904C128.619 16.5459 129.237 15.6506 130.055 14.888C130.856 14.1254 131.807 13.5285 132.926 13.114C134.027 12.683 135.229 12.484 136.548 12.484C137.867 12.484 139.069 12.6996 140.17 13.114C141.272 13.5451 142.224 14.1254 143.042 14.888C143.86 15.6506 144.477 16.5459 144.928 17.5904C144.961 17.6567 144.978 17.7064 144.995 17.7727H159C157.648 7.77558 148.984 0 138.568 0H20.6324C9.28126 0.0165791 0 9.23453 0 20.5083C0 31.782 9.28126 41 20.6324 41H69.7931V13.0146H73.549L74.2334 14.2911C74.9178 13.7109 75.669 13.2798 76.5036 12.9482C77.3383 12.6332 78.2397 12.4675 79.1912 12.4675C80.4265 12.4675 81.5616 12.683 82.5965 13.0975C83.6315 13.5285 84.5162 14.1088 85.2674 14.8714C86.0186 15.6175 86.6028 16.5293 87.0202 17.5738C87.4375 18.6183 87.6545 19.7622 87.6545 21.0222C87.6545 22.2822 87.4542 23.4096 87.0202 24.4707C86.6028 25.5152 86.0186 26.427 85.2841 27.1731C84.5329 27.9191 83.6482 28.516 82.6132 28.947C81.5783 29.3781 80.4432 29.577 79.2079 29.577C78.4734 29.577 77.7723 29.4776 77.1213 29.2952C76.4702 29.1128 75.8526 28.8476 75.2683 28.516V40.9834H138.568C148.984 40.9834 157.648 33.2078 159 23.2107H145.329ZM39.1282 6.16741V10.9919L33.6529 6.16741H39.1282ZM28.9622 26.2944C28.6283 26.9741 28.1443 27.5544 27.5099 28.0518C26.8756 28.5326 26.1244 28.9139 25.2564 29.1791C24.3717 29.4444 23.4035 29.577 22.3351 29.577C21.2668 29.577 20.2485 29.4444 19.3805 29.1626C18.4957 28.8807 17.7613 28.4994 17.1603 27.9854C16.5594 27.4881 16.0753 26.8746 15.7414 26.1617C15.4076 25.4489 15.2406 24.6531 15.2406 23.7909H20.5824C20.5824 24.3712 20.766 24.8023 21.1165 25.0841C21.4671 25.366 21.9178 25.5152 22.4353 25.5152C22.8526 25.5152 23.2198 25.4157 23.537 25.2002C23.8542 25.0012 24.0211 24.6862 24.0211 24.2717C24.0211 23.8241 23.754 23.4925 23.2198 23.3102C22.6857 23.1278 22.0346 22.962 21.2835 22.8128C20.6658 22.7133 20.0148 22.5807 19.3304 22.4149C18.646 22.2491 18.0117 21.9838 17.4274 21.6191C16.8431 21.2543 16.3757 20.757 16.0085 20.1436C15.6413 19.5301 15.4576 18.7343 15.4576 17.7727C15.4576 16.9604 15.6246 16.2309 15.9584 15.5843C16.2923 14.9377 16.743 14.3906 17.3439 13.9264C17.9449 13.4622 18.6627 13.114 19.514 12.8653C20.3654 12.6167 21.3002 12.5006 22.3351 12.5006C23.3701 12.5006 24.3049 12.6332 25.1395 12.8819C25.9742 13.1472 26.692 13.5119 27.2762 13.9761C27.8605 14.4404 28.3279 15.0206 28.645 15.7004C28.9789 16.3801 29.1458 17.1096 29.1625 17.922H23.971C23.971 17.408 23.8208 17.0267 23.5036 16.778C23.1865 16.5293 22.7858 16.4133 22.2683 16.4133C21.8176 16.4133 21.4504 16.5127 21.1833 16.7283C20.9162 16.9438 20.7827 17.2256 20.7827 17.607C20.7827 18.0546 21.0498 18.3696 21.6006 18.5354C22.1515 18.7012 22.8025 18.8504 23.5537 18.9996C24.188 19.1157 24.8557 19.2649 25.5569 19.4141C26.258 19.5799 26.8923 19.8286 27.4765 20.1767C28.0608 20.5249 28.5449 21.0057 28.9288 21.6191C29.3128 22.2325 29.4964 23.0449 29.4964 24.0562C29.4964 24.8852 29.3295 25.6478 28.9956 26.3275L28.9622 26.2944ZM39.195 29.0465H33.6362V17.8556H30.932V13.0311H39.195V29.0631V29.0465ZM66.8718 29.0465H61.3131V19.6628C61.3131 18.0214 60.7121 17.1925 59.5269 17.1925C57.9745 17.1925 57.1899 18.2038 57.1899 20.243V29.0299H51.7814V19.6462C51.7814 18.0049 51.1972 17.1759 50.012 17.1759C48.4595 17.1759 47.675 18.1872 47.675 20.2264V29.0133H42.1162V13.0146H46.0057L46.8069 14.7388C47.3912 14.059 48.0756 13.5285 48.8769 13.1306C49.6781 12.7327 50.5628 12.5338 51.5143 12.5338C52.4658 12.5338 53.3839 12.7493 54.1685 13.1638C54.9698 13.5782 55.6208 14.1585 56.1383 14.9211C56.7225 14.1917 57.4236 13.6114 58.275 13.1803C59.1263 12.7493 60.0611 12.5503 61.0627 12.5503C61.9307 12.5503 62.732 12.7161 63.4331 13.0311C64.1342 13.3461 64.7351 13.7938 65.2359 14.374C65.7367 14.9543 66.1206 15.634 66.4044 16.4133C66.6882 17.1925 66.8217 18.0546 66.8217 19.0162V29.0797L66.8718 29.0465ZM106.785 21.6025C106.768 21.8346 106.734 22.0833 106.701 22.3486H94.7156C94.8992 23.277 95.2665 23.9733 95.834 24.4375C96.4016 24.9017 97.1194 25.1338 98.0041 25.1338C98.6551 25.1338 99.2394 25.0012 99.7569 24.736C100.258 24.4707 100.658 24.1059 100.942 23.6252H106.467C106.184 24.537 105.783 25.366 105.249 26.0954C104.715 26.8415 104.08 27.4715 103.346 27.9854C102.611 28.4994 101.793 28.8973 100.892 29.1791C99.9906 29.461 99.0224 29.5936 98.0041 29.5936C96.7521 29.5936 95.5836 29.3781 94.5153 28.947C93.4469 28.516 92.5288 27.9191 91.7276 27.1565C90.943 26.3939 90.3254 25.4986 89.8913 24.4541C89.4573 23.4096 89.2403 22.2822 89.2403 21.0554C89.2403 19.8285 89.4573 18.6846 89.8913 17.6401C90.3254 16.5956 90.943 15.6838 91.7109 14.9211C92.4954 14.1585 93.4135 13.5617 94.4986 13.1472C95.5669 12.7161 96.7354 12.5172 97.9874 12.5172C99.2394 12.5172 100.475 12.7327 101.56 13.1638C102.645 13.5948 103.58 14.1917 104.347 14.9377C105.132 15.6838 105.733 16.5791 106.15 17.5904C106.584 18.6017 106.785 19.7125 106.785 20.9062C106.785 21.1383 106.785 21.387 106.751 21.6191L106.785 21.6025ZM124.946 25.2665C124.462 26.1617 123.828 26.941 123.077 27.571C122.326 28.201 121.458 28.6983 120.473 29.0631C119.488 29.4112 118.436 29.5936 117.301 29.5936C115.999 29.5936 114.814 29.3781 113.729 28.9636C112.644 28.5326 111.709 27.9523 110.908 27.1896C110.106 26.427 109.489 25.5152 109.055 24.4707C108.621 23.4262 108.404 22.2657 108.404 21.0222C108.404 19.7788 108.621 18.6349 109.055 17.5904C109.489 16.5459 110.106 15.6506 110.891 14.9046C111.676 14.1585 112.61 13.5617 113.712 13.1472C114.814 12.7327 115.982 12.484 117.284 12.484C118.42 12.484 119.488 12.6996 120.473 13.0311C121.441 13.3627 122.309 13.8435 123.06 14.4735C123.811 15.1035 124.429 15.8496 124.913 16.7117C125.397 17.5738 125.714 18.552 125.848 19.613H120.439C120.206 18.9664 119.805 18.4359 119.237 18.0546C118.67 17.6733 118.019 17.4743 117.301 17.4743C116.3 17.4743 115.498 17.8059 114.881 18.4525C114.263 19.0991 113.946 19.9612 113.946 21.0388C113.946 22.1165 114.263 22.9454 114.881 23.6252C115.515 24.3049 116.316 24.6365 117.284 24.6365C118.036 24.6365 118.703 24.4209 119.254 24.0065C119.805 23.5754 120.206 23.0117 120.423 22.2988H125.898C125.731 23.393 125.414 24.3878 124.93 25.2831L124.946 25.2665Z" fill="#BCCF00"/>
</svg>
